<svg width="128" height="128" viewBox="0 0 128 128" fill="none" xmlns="http://www.w3.org/2000/svg">
  <path d="M64 112S18 87.6 18 52.9C18 35.3 30.3 24 45.5 24c8.1 0 14.5 3.3 18.5 8.7C68 27.3 74.4 24 82.5 24 97.7 24 110 35.3 110 52.9 110 87.6 64 112 64 112Z" fill="#F3E4C8"/>
  <ellipse cx="38" cy="53" rx="10" ry="13" transform="rotate(-22 38 53)" fill="#DFA6B6"/>
  <ellipse cx="54" cy="42" rx="9" ry="13" transform="rotate(-7 54 42)" fill="#DFA6B6"/>
  <ellipse cx="74" cy="42" rx="9" ry="13" transform="rotate(7 74 42)" fill="#DFA6B6"/>
  <ellipse cx="90" cy="53" rx="10" ry="13" transform="rotate(22 90 53)" fill="#DFA6B6"/>
  <path d="M64 100c-16 0-27-8-27-19 0-9 7-17 13-24 4-4 8-6 14-6s10 2 14 6c6 7 13 15 13 24 0 11-11 19-27 19Z" fill="#CF7F98"/>
</svg>
