<svg width="48" height="48" viewBox="0 0 48 48" fill="none" xmlns="http://www.w3.org/2000/svg">
  <ellipse cx="10" cy="15" rx="4" ry="5.5" transform="rotate(-22 10 15)" fill="#DFA6B6"/>
  <ellipse cx="19" cy="10" rx="4" ry="5.5" transform="rotate(-6 19 10)" fill="#DFA6B6"/>
  <ellipse cx="29" cy="10" rx="4" ry="5.5" transform="rotate(6 29 10)" fill="#DFA6B6"/>
  <ellipse cx="38" cy="15" rx="4" ry="5.5" transform="rotate(22 38 15)" fill="#DFA6B6"/>
  <path d="M24 44c-8.8 0-15-4.3-15-10.5 0-5.3 3.8-9.4 7.4-13.2 2.2-2.4 4.5-3.9 7.6-3.9s5.4 1.5 7.6 3.9c3.6 3.8 7.4 7.9 7.4 13.2C39 39.7 32.8 44 24 44Z" fill="#CF7F98"/>
</svg>
